<?xml version="1.0" encoding="UTF-8"?>
<svg width="1080" height="270" viewBox="0 0 360 90" fill="none" xmlns="http://www.w3.org/2000/svg">
  <rect width="360" height="90" rx="12" fill="#0F172A"/>
  <g transform="translate(10, -5)">
    
  <defs>
    <linearGradient id="facturim-grad" x1="20" y1="45" x2="80" y2="90" gradientUnits="userSpaceOnUse">
      <stop offset="0%" stop-color="#0EA5E9" />
      <stop offset="100%" stop-color="#10B981" />
    </linearGradient>
  </defs>
  <!-- HAUT : Tête de Mauritanie & Barre haute du F -->
  <path d="M 22 22 C 22 20.89 22.89 20 24 20 L 44 20 L 54 11 C 54.8 10.3 56 10.3 56.8 11 L 76 21 C 77.2 21.6 77.8 22.9 77.4 24.2 L 72 40 C 71.6 41.2 70.4 42 69.1 42 L 49 42 L 49 45.5 L 22 61.5 L 22 22 Z" fill="#FFFFFF" />
  <!-- BAS : Découpe oblique, Barre centrale du F & Bassin Sud -->
  <path d="M 22 69.5 L 52 51.5 L 74 51.5 C 75.3 51.5 76.4 52.4 76.8 53.6 L 78 57.5 C 78.4 58.8 77.6 60.1 76.3 60.4 L 47 60.4 L 47 84 C 47 85.1 46.1 86 45 86 L 30 86 C 28.9 86 28 85.1 28 84 L 28 77 C 26.5 77 24.5 75.5 23 74 L 22 69.5 Z" fill="url(#facturim-grad)" />
  <!-- Point Nouakchott -->
  <circle cx="22" cy="51.5" r="2.5" fill="#38BDF8" />

  </g>
  <text x="113" y="55" font-family="-apple-system, BlinkMacSystemFont, 'Segoe UI', Roboto, Helvetica, Arial, sans-serif" font-size="38" font-weight="900" letter-spacing="-1px" fill="#FFFFFF">
    FACTU<tspan fill="#0EA5E9">RIM</tspan>
  </text>
  <text x="115" y="74" font-family="-apple-system, BlinkMacSystemFont, 'Segoe UI', Roboto, Helvetica, Arial, sans-serif" font-size="10" font-weight="700" letter-spacing="1.5px" fill="#94A3B8">
    FACTURATION &amp; GESTION | MAURITANIE
  </text>
</svg>